<?xml version="1.0" encoding="UTF-8"?>
<svg xmlns="http://www.w3.org/2000/svg" width="1200" height="630" viewBox="0 0 1200 630">
  <defs>
    <linearGradient id="ink" x1="0%" y1="0%" x2="0%" y2="100%">
      <stop offset="0%" stop-color="#101214"/>
      <stop offset="100%" stop-color="#0d1b2a"/>
    </linearGradient>
    <radialGradient id="mesh-plum" cx="18%" cy="24%" r="42%">
      <stop offset="0%" stop-color="#bc2a64" stop-opacity="0.66"/>
      <stop offset="100%" stop-color="#0d1b2a" stop-opacity="0"/>
    </radialGradient>
    <radialGradient id="mesh-mag" cx="82%" cy="36%" r="48%">
      <stop offset="0%" stop-color="#e0457b" stop-opacity="0.50"/>
      <stop offset="100%" stop-color="#0d1b2a" stop-opacity="0"/>
    </radialGradient>
    <radialGradient id="mesh-deep" cx="62%" cy="86%" r="56%">
      <stop offset="0%" stop-color="#3a0f24" stop-opacity="0.78"/>
      <stop offset="100%" stop-color="#0d1b2a" stop-opacity="0"/>
    </radialGradient>
    <filter id="noise" x="0%" y="0%" width="100%" height="100%">
      <feTurbulence type="fractalNoise" baseFrequency="0.9" numOctaves="2" stitchTiles="stitch"/>
      <feColorMatrix values="0 0 0 0 1  0 0 0 0 1  0 0 0 0 1  0 0 0 0.06 0"/>
    </filter>
  </defs>
  <rect width="1200" height="630" fill="url(#ink)"/>
  <rect width="1200" height="630" fill="url(#mesh-plum)"/>
  <rect width="1200" height="630" fill="url(#mesh-mag)"/>
  <rect width="1200" height="630" fill="url(#mesh-deep)"/>
  <rect width="1200" height="630" fill="white" filter="url(#noise)" opacity="0.4" style="mix-blend-mode: overlay"/>

  <g aria-label="Azaman brand mark">
    <rect x="80" y="80" width="60" height="60" rx="12" fill="#bc2a64"/>
    <path d="M357 596L941 596L942 447L355 447ZM518 68Q518 37 497.5 18.5Q477 0 433 0L113 0Q70 0 49 18.5Q28 37 28 68Q28 90 38.5 105.5Q49 121 73 136L94 149Q127 169 145.5 198.5Q164 228 186 301L442 1128Q460 1187 455 1213.5Q450 1240 414 1257Q386 1271 374.5 1289Q363 1307 363 1332Q363 1364 384 1382Q405 1400 449 1400L1092 1400Q1136 1400 1157 1382Q1178 1364 1178 1332Q1178 1305 1165.5 1287.5Q1153 1270 1130 1259Q1105 1247 1100.5 1226.5Q1096 1206 1110 1162L1385 291Q1406 224 1423 192.5Q1440 161 1468 147Q1503 129 1515 112Q1527 95 1527 68Q1527 37 1506 18.5Q1485 0 1441 0L913 0Q868 0 847.5 18.5Q827 37 827 68Q827 93 840 108.5Q853 124 879 136L911 151Q937 163 933 183.5Q929 204 915 250L621 1225L663 1254L376 327Q360 276 359.5 244.5Q359 213 378 191.5Q397 170 439 148L467 134Q490 122 504 107.5Q518 93 518 68Z" transform="translate(96.00,120.00) scale(0.01700,-0.01700)" fill="#ffffff"/>
    <path d="M52 0L593 1490L813 1490L1361 0L1161 0L845 884Q816 966 777.5 1088.5Q739 1211 684 1401L720 1401Q666 1209 626.5 1084.5Q587 960 561 884L254 0ZM324 416L324 582L1089 582L1089 416Z" transform="translate(158.00,118.00) scale(0.01270,-0.01270)" fill="#ffffff"/><path d="M126 0L126 134L753 940L753 951L146 951L146 1118L985 1118L985 975L376 178L376 167L1005 167L1005 0Z" transform="translate(175.94,118.00) scale(0.01270,-0.01270)" fill="#ffffff"/><path d="M471 -26Q365 -26 278.5 14Q192 54 141 131Q90 208 90 318Q90 414 128 474Q166 534 229.5 568.5Q293 603 370 620Q447 637 525 647Q625 660 688 667Q751 674 781.5 691Q812 708 812 749L812 755Q812 825 786 873.5Q760 922 708 948Q656 974 578 974Q498 974 441 949Q384 924 348.5 886.5Q313 849 295 810L122 867Q165 969 238 1026.5Q311 1084 399 1108Q487 1132 573 1132Q629 1132 700.5 1118.5Q772 1105 838.5 1065Q905 1025 948.5 946.5Q992 868 992 737L992 0L815 0L815 152L803 152Q784 113 742 71.5Q700 30 633 2Q566 -26 471 -26ZM502 133Q602 133 671 172Q740 211 776 273.5Q812 336 812 404L812 559Q801 546 764 535.5Q727 525 679.5 517Q632 509 587.5 503.5Q543 498 517 495Q452 487 395.5 467.5Q339 448 305 410.5Q271 373 271 309Q271 251 301 212Q331 173 383 153Q435 133 502 133Z" transform="translate(190.30,118.00) scale(0.01270,-0.01270)" fill="#ffffff"/><path d="M158 0L158 1118L333 1118L334 868L320 868Q343 959 392.5 1018.5Q442 1078 508.5 1108Q575 1138 647 1138Q769 1138 844.5 1063Q920 988 942 866L918 866Q938 950 991 1011Q1044 1072 1119.5 1105Q1195 1138 1284 1138Q1381 1138 1461 1096Q1541 1054 1588.5 969Q1636 884 1636 754L1636 0L1456 0L1456 749Q1456 870 1388 922Q1320 974 1230 974Q1155 974 1100.5 942.5Q1046 911 1016.5 856Q987 801 987 730L987 0L807 0L807 767Q807 860 745 917Q683 974 588 974Q523 974 465.5 943.5Q408 913 373 853Q338 793 338 704L338 0Z" transform="translate(204.90,118.00) scale(0.01270,-0.01270)" fill="#ffffff"/><path d="M471 -26Q365 -26 278.5 14Q192 54 141 131Q90 208 90 318Q90 414 128 474Q166 534 229.5 568.5Q293 603 370 620Q447 637 525 647Q625 660 688 667Q751 674 781.5 691Q812 708 812 749L812 755Q812 825 786 873.5Q760 922 708 948Q656 974 578 974Q498 974 441 949Q384 924 348.5 886.5Q313 849 295 810L122 867Q165 969 238 1026.5Q311 1084 399 1108Q487 1132 573 1132Q629 1132 700.5 1118.5Q772 1105 838.5 1065Q905 1025 948.5 946.5Q992 868 992 737L992 0L815 0L815 152L803 152Q784 113 742 71.5Q700 30 633 2Q566 -26 471 -26ZM502 133Q602 133 671 172Q740 211 776 273.5Q812 336 812 404L812 559Q801 546 764 535.5Q727 525 679.5 517Q632 509 587.5 503.5Q543 498 517 495Q452 487 395.5 467.5Q339 448 305 410.5Q271 373 271 309Q271 251 301 212Q331 173 383 153Q435 133 502 133Z" transform="translate(227.67,118.00) scale(0.01270,-0.01270)" fill="#ffffff"/><path d="M338 670L338 0L158 0L158 1118L331 1118L332 847L307 847Q358 1002 452.5 1067Q547 1132 674 1132Q787 1132 872 1085.5Q957 1039 1004.5 945.5Q1052 852 1052 710L1052 0L872 0L872 695Q872 824 804.5 897Q737 970 620 970Q540 970 476 935Q412 900 375 833Q338 766 338 670Z" transform="translate(242.27,118.00) scale(0.01270,-0.01270)" fill="#ffffff"/>
  </g>

  <path d="M15 0L182 700L430 700L597 0L459 0L425 150L187 150L153 0ZM215 276L396 276L315 634L297 634Z" transform="translate(80.00,252.00) scale(0.01800,-0.01800)" fill="#e0457b"/><path d="M61 0L61 700L319 700L401 66L419 66L419 700L551 700L551 0L293 0L211 634L193 634L193 0Z" transform="translate(94.26,252.00) scale(0.01800,-0.01800)" fill="#e0457b"/><path d="" transform="translate(108.51,252.00) scale(0.01800,-0.01800)" fill="#e0457b"/><path d="M82 0L82 700L524 700L524 574L214 574L214 414L512 414L512 288L214 288L214 126L536 126L536 0Z" transform="translate(122.77,252.00) scale(0.01800,-0.01800)" fill="#e0457b"/><path d="M33 0L177 342L177 360L33 700L176 700L294 414L318 414L436 700L579 700L435 360L435 342L579 0L436 0L318 288L294 288L176 0Z" transform="translate(137.02,252.00) scale(0.01800,-0.01800)" fill="#e0457b"/><path d="M72 0L72 700L346 700Q418 700 465.5 670.5Q513 641 536.5 594.5Q560 548 560 497L560 473Q560 421 536.5 373Q513 325 465.5 294.5Q418 264 346 264L204 264L204 0ZM204 390L333 390Q377 390 402.5 414Q428 438 428 476L428 488Q428 526 402.5 550Q377 574 333 574L204 574Z" transform="translate(151.28,252.00) scale(0.01800,-0.01800)" fill="#e0457b"/><path d="M82 0L82 700L524 700L524 574L214 574L214 414L512 414L512 288L214 288L214 126L536 126L536 0Z" transform="translate(165.54,252.00) scale(0.01800,-0.01800)" fill="#e0457b"/><path d="M73 0L73 700L341 700Q413 700 462 674Q511 648 536 604.5Q561 561 561 507L561 483Q561 440 537.5 402.5Q514 365 467 345L467 327Q502 323 522.5 300Q543 277 543 242L543 0L411 0L411 210Q411 234 398.5 249Q386 264 357 264L205 264L205 0ZM205 390L331 390Q379 390 404 413Q429 436 429 476L429 488Q429 523 404 548.5Q379 574 331 574L205 574Z" transform="translate(179.79,252.00) scale(0.01800,-0.01800)" fill="#e0457b"/><path d="M240 0L240 574L54 574L54 700L558 700L558 574L372 574L372 0Z" transform="translate(194.05,252.00) scale(0.01800,-0.01800)" fill="#e0457b"/><path d="" transform="translate(208.30,252.00) scale(0.01800,-0.01800)" fill="#e0457b"/><path d="M15 0L182 700L430 700L597 0L459 0L425 150L187 150L153 0ZM215 276L396 276L315 634L297 634Z" transform="translate(222.56,252.00) scale(0.01800,-0.01800)" fill="#e0457b"/><path d="M72 0L72 126L240 126L240 574L72 574L72 700L540 700L540 574L372 574L372 126L540 126L540 0Z" transform="translate(236.82,252.00) scale(0.01800,-0.01800)" fill="#e0457b"/><path d="" transform="translate(251.07,252.00) scale(0.01800,-0.01800)" fill="#e0457b"/><path d="M308 -14Q188 -14 118 59.5Q48 133 48 272L48 428Q48 563 118 638.5Q188 714 308 714Q433 714 498.5 644Q564 574 564 454L564 436L432 436L432 454Q432 487 421 519.5Q410 552 383 573Q356 594 308 594Q264 594 235.5 572.5Q207 551 193.5 515.5Q180 480 180 438L180 262Q180 194 209 150Q238 106 308 106Q359 106 386 126Q413 146 422.5 178Q432 210 432 246L432 264L564 264L564 246Q564 122 498.5 54Q433 -14 308 -14Z" transform="translate(265.33,252.00) scale(0.01800,-0.01800)" fill="#e0457b"/><path d="M73 0L73 700L341 700Q413 700 462 674Q511 648 536 604.5Q561 561 561 507L561 483Q561 440 537.5 402.5Q514 365 467 345L467 327Q502 323 522.5 300Q543 277 543 242L543 0L411 0L411 210Q411 234 398.5 249Q386 264 357 264L205 264L205 0ZM205 390L331 390Q379 390 404 413Q429 436 429 476L429 488Q429 523 404 548.5Q379 574 331 574L205 574Z" transform="translate(279.58,252.00) scale(0.01800,-0.01800)" fill="#e0457b"/><path d="M82 0L82 700L524 700L524 574L214 574L214 414L512 414L512 288L214 288L214 126L536 126L536 0Z" transform="translate(293.84,252.00) scale(0.01800,-0.01800)" fill="#e0457b"/><path d="M32 0L8 700L128 700L144 168L144 78L168 78L168 168L200 700L412 700L444 168L444 78L468 78L468 168L484 700L604 700L580 0L350 0L318 532L318 628L294 628L294 532L262 0Z" transform="translate(308.10,252.00) scale(0.01800,-0.01800)" fill="#e0457b"/>
  <path d="M1513 335Q1513 185 1383.5 92.5Q1254 0 983 0L175 0Q131 0 110 18.5Q89 37 89 68Q89 122 141 142L179 156Q205 166 217.5 181.5Q230 197 230 222L230 1178Q230 1203 217.5 1218.5Q205 1234 179 1244L141 1258Q89 1278 89 1332Q89 1364 110 1382Q131 1400 175 1400L808 1400Q1003 1400 1143 1348Q1283 1296 1358 1203Q1433 1110 1433 985Q1433 884 1372.5 806.5Q1312 729 1197 685Q1082 641 918 641L963 682Q1127 682 1250.5 638.5Q1374 595 1443.5 516.5Q1513 438 1513 335ZM825 584L567 584L567 695L776 695Q850 695 899.5 723Q949 751 973.5 809.5Q998 868 998 958Q998 1055 965 1124.5Q932 1194 870.5 1232Q809 1270 723 1270L694 1270L694 249Q694 188 728 159Q762 130 825 130L876 130Q932 130 972.5 155.5Q1013 181 1035 230.5Q1057 280 1057 350Q1057 460 995.5 522Q934 584 825 584Z" transform="translate(80.00,330.00) scale(0.04600,-0.04600)" fill="#ffffff"/><path d="M535 546Q535 699 575 798.5Q615 898 681.5 946Q748 994 827 994Q933 994 989.5 930.5Q1046 867 1046 739Q1046 608 993.5 546Q941 484 857 484Q772 484 729.5 527.5Q687 571 687 648L687 690Q686 716 675.5 729.5Q665 743 643 743Q623 743 607.5 725.5Q592 708 583 668.5Q574 629 574 562ZM546 904L574 695L574 210Q574 175 584 160.5Q594 146 630 139L706 124Q736 118 750 103Q764 88 764 61Q764 32 744.5 16Q725 0 687 0L134 0Q94 0 76 16Q58 32 58 60Q58 80 68 95Q78 110 101 120L123 130Q138 137 144 153.5Q150 170 150 210L150 676Q150 708 141.5 721.5Q133 735 116 740L94 747Q73 754 63.5 767Q54 780 54 800Q54 824 67.5 838.5Q81 853 116 866L331 950Q402 978 433 986Q464 994 481 994Q509 994 524 973.5Q539 953 546 904Z" transform="translate(150.29,330.00) scale(0.04600,-0.04600)" fill="#ffffff"/><path d="M574 904L574 210Q574 170 580 153.5Q586 137 601 130L623 120Q646 110 656 95Q666 80 666 60Q666 32 648 16Q630 0 590 0L134 0Q94 0 76 16Q58 32 58 60Q58 80 68 95Q78 110 101 120L123 130Q138 137 144 153.5Q150 170 150 210L150 680Q150 712 141.5 725.5Q133 739 116 744L94 751Q73 758 63.5 771Q54 784 54 804Q54 828 67 842Q80 856 116 870L338 956Q392 977 423 985.5Q454 994 478 994Q526 994 550 968.5Q574 943 574 904ZM340 1082Q228 1082 163 1134Q98 1186 98 1276Q98 1365 163 1416Q228 1467 340 1467Q452 1467 517 1416Q582 1365 582 1276Q582 1186 517 1134Q452 1082 340 1082Z" transform="translate(198.59,330.00) scale(0.04600,-0.04600)" fill="#ffffff"/><path d="M1071 608Q1071 538 1033 499.5Q995 461 924 461L331 461L331 565L598 565Q653 565 653 617Q653 743 624 797Q595 851 547 851Q512 851 484 825Q456 799 439.5 745.5Q423 692 423 610Q423 428 505 343.5Q587 259 729 259Q795 259 849 274Q903 289 955 335Q984 361 999 370Q1014 379 1028 379Q1048 379 1057.5 359Q1067 339 1067 310Q1067 221 1006.5 143.5Q946 66 838.5 19Q731 -28 588 -28Q435 -28 313 32.5Q191 93 120 201.5Q49 310 49 455Q49 618 114 739Q179 860 303.5 927Q428 994 604 994Q759 994 863 944Q967 894 1019 807Q1071 720 1071 608Z" transform="translate(230.05,330.00) scale(0.04600,-0.04600)" fill="#ffffff"/><path d="M634 211Q634 175 644.5 156Q655 137 682 134L785 121Q815 118 827.5 101Q840 84 840 61Q840 0 767 0L145 0Q112 0 92.5 15.5Q73 31 73 58Q73 83 86 98.5Q99 114 128 123L154 131Q186 141 198 159Q210 177 210 209L210 709Q210 728 200 742Q190 756 161 769L124 786Q86 804 71.5 820.5Q57 837 57 858Q57 882 74.5 897.5Q92 913 129 913L298 913L212 881L212 911Q212 931 194 952Q176 973 152 1000Q128 1027 110 1065.5Q92 1104 92 1159Q92 1295 201 1378.5Q310 1462 509 1462Q636 1462 723 1423.5Q810 1385 854.5 1321.5Q899 1258 899 1184Q899 1102 852 1059Q805 1016 731 1016Q647 1016 597 1064.5Q547 1113 547 1195L547 1277Q547 1318 522.5 1337.5Q498 1357 461 1357Q418 1357 396.5 1331.5Q375 1306 375 1259Q375 1209 397.5 1169Q420 1129 453.5 1096Q487 1063 520.5 1033Q554 1003 576.5 973Q599 943 599 909L599 854L555 913L790 913Q821 913 839.5 899.5Q858 886 858 861Q858 823 821 797Q784 771 699 771L634 771Z" transform="translate(280.65,330.00) scale(0.04600,-0.04600)" fill="#ffffff"/><path d="" transform="translate(321.78,330.00) scale(0.04600,-0.04600)" fill="#ffffff"/><path d="M666 137L666 160L634 161L634 807Q634 845 613.5 868Q593 891 558 891Q532 891 512.5 878.5Q493 866 493 845L493 736Q493 652 435.5 606Q378 560 271 560Q180 560 135.5 598.5Q91 637 91 706Q91 772 151 838Q211 904 331.5 948Q452 992 635 992Q847 992 950 914.5Q1053 837 1053 703L1053 225Q1053 206 1062.5 193.5Q1072 181 1092 181Q1109 181 1119.5 190Q1130 199 1139 208Q1146 215 1153.5 220Q1161 225 1171 225Q1188 225 1195.5 212.5Q1203 200 1203 181Q1203 137 1171 88.5Q1139 40 1075.5 6Q1012 -28 918 -28Q807 -28 736.5 19Q666 66 666 137ZM55 213Q55 350 179 429.5Q303 509 527 509Q586 509 630 501Q674 493 702 478L668 391Q647 403 628.5 408Q610 413 588 413Q539 413 510.5 380.5Q482 348 482 287Q482 223 510 189.5Q538 156 584 156Q613 156 638.5 169.5Q664 183 677 201L701 121Q653 50 561.5 11Q470 -28 366 -28Q226 -28 140.5 41Q55 110 55 213Z" transform="translate(339.72,330.00) scale(0.04600,-0.04600)" fill="#ffffff"/><path d="M574 904L574 210Q574 170 580 154Q586 138 601 130L621 119Q654 100 654 64Q654 0 577 0L134 0Q94 0 76 16Q58 32 58 60Q58 80 68 95Q78 110 101 120L123 130Q138 137 144 153.5Q150 170 150 210L150 680Q150 712 141.5 725.5Q133 739 116 744L94 751Q73 758 63.5 771Q54 784 54 804Q54 828 67 842Q80 856 116 870L338 956Q389 976 420.5 985Q452 994 482 994Q527 994 550.5 968.5Q574 943 574 904ZM538 660L478 724L508 752Q649 883 749 938.5Q849 994 934 994Q1064 994 1137.5 905Q1211 816 1224 674L1269 210Q1273 170 1277 153.5Q1281 137 1296 130L1318 120Q1341 110 1351 95Q1361 80 1361 60Q1361 32 1343 16Q1325 0 1285 0L837 0Q760 0 760 64Q760 100 793 119L813 130Q828 138 836 154Q844 170 840 210L802 614Q796 678 771.5 710Q747 742 696 742Q665 742 632.5 728.5Q600 715 573 691Z" transform="translate(394.13,330.00) scale(0.04600,-0.04600)" fill="#ffffff"/><path d="" transform="translate(456.37,330.00) scale(0.04600,-0.04600)" fill="#ffffff"/><path d="M357 596L941 596L942 447L355 447ZM518 68Q518 37 497.5 18.5Q477 0 433 0L113 0Q70 0 49 18.5Q28 37 28 68Q28 90 38.5 105.5Q49 121 73 136L94 149Q127 169 145.5 198.5Q164 228 186 301L442 1128Q460 1187 455 1213.5Q450 1240 414 1257Q386 1271 374.5 1289Q363 1307 363 1332Q363 1364 384 1382Q405 1400 449 1400L1092 1400Q1136 1400 1157 1382Q1178 1364 1178 1332Q1178 1305 1165.5 1287.5Q1153 1270 1130 1259Q1105 1247 1100.5 1226.5Q1096 1206 1110 1162L1385 291Q1406 224 1423 192.5Q1440 161 1468 147Q1503 129 1515 112Q1527 95 1527 68Q1527 37 1506 18.5Q1485 0 1441 0L913 0Q868 0 847.5 18.5Q827 37 827 68Q827 93 840 108.5Q853 124 879 136L911 151Q937 163 933 183.5Q929 204 915 250L621 1225L663 1254L376 327Q360 276 359.5 244.5Q359 213 378 191.5Q397 170 439 148L467 134Q490 122 504 107.5Q518 93 518 68Z" transform="translate(474.31,330.00) scale(0.04600,-0.04600)" fill="#ffffff"/><path d="M694 222Q694 197 707 181.5Q720 166 745 156L783 142Q835 122 835 68Q835 37 814 18.5Q793 0 749 0L175 0Q131 0 110 18.5Q89 37 89 68Q89 122 141 142L179 156Q205 166 217.5 181.5Q230 197 230 222L230 1178Q230 1203 217.5 1218.5Q205 1234 179 1244L141 1258Q89 1278 89 1332Q89 1364 110 1382Q131 1400 175 1400L749 1400Q793 1400 814 1382Q835 1364 835 1332Q835 1278 783 1258L745 1244Q720 1234 707 1218.5Q694 1203 694 1178Z" transform="translate(545.89,330.00) scale(0.04600,-0.04600)" fill="#ffffff"/><path d="" transform="translate(587.47,330.00) scale(0.04600,-0.04600)" fill="#ffffff"/><path d="M1053 685Q1053 609 995.5 556Q938 503 842 503Q749 503 702.5 552.5Q656 602 656 679L656 711Q656 776 629 813.5Q602 851 558 851Q523 851 492.5 825Q462 799 443 745.5Q424 692 424 610Q424 494 463.5 416Q503 338 572 298.5Q641 259 729 259Q793 259 844.5 274.5Q896 290 947 335Q976 361 991 370Q1006 379 1020 379Q1040 379 1049.5 359Q1059 339 1059 310Q1059 221 999.5 143.5Q940 66 834 19Q728 -28 588 -28Q435 -28 313.5 32.5Q192 93 121 201.5Q50 310 50 455Q50 610 118.5 732Q187 854 312.5 924Q438 994 609 994Q746 994 845.5 952.5Q945 911 999 841Q1053 771 1053 685Z" transform="translate(605.41,330.00) scale(0.04600,-0.04600)" fill="#ffffff"/><path d="M535 546Q535 699 575 798.5Q615 898 681.5 946Q748 994 827 994Q933 994 989.5 930.5Q1046 867 1046 739Q1046 608 993.5 546Q941 484 857 484Q772 484 729.5 527.5Q687 571 687 648L687 690Q686 716 675.5 729.5Q665 743 643 743Q623 743 607.5 725.5Q592 708 583 668.5Q574 629 574 562ZM546 904L574 695L574 210Q574 175 584 160.5Q594 146 630 139L706 124Q736 118 750 103Q764 88 764 61Q764 32 744.5 16Q725 0 687 0L134 0Q94 0 76 16Q58 32 58 60Q58 80 68 95Q78 110 101 120L123 130Q138 137 144 153.5Q150 170 150 210L150 676Q150 708 141.5 721.5Q133 735 116 740L94 747Q73 754 63.5 767Q54 780 54 800Q54 824 67.5 838.5Q81 853 116 866L331 950Q402 978 433 986Q464 994 481 994Q509 994 524 973.5Q539 953 546 904Z" transform="translate(655.78,330.00) scale(0.04600,-0.04600)" fill="#ffffff"/><path d="M1071 608Q1071 538 1033 499.5Q995 461 924 461L331 461L331 565L598 565Q653 565 653 617Q653 743 624 797Q595 851 547 851Q512 851 484 825Q456 799 439.5 745.5Q423 692 423 610Q423 428 505 343.5Q587 259 729 259Q795 259 849 274Q903 289 955 335Q984 361 999 370Q1014 379 1028 379Q1048 379 1057.5 359Q1067 339 1067 310Q1067 221 1006.5 143.5Q946 66 838.5 19Q731 -28 588 -28Q435 -28 313 32.5Q191 93 120 201.5Q49 310 49 455Q49 618 114 739Q179 860 303.5 927Q428 994 604 994Q759 994 863 944Q967 894 1019 807Q1071 720 1071 608Z" transform="translate(704.08,330.00) scale(0.04600,-0.04600)" fill="#ffffff"/><path d="M629 0L477 0Q434 0 402.5 20Q371 40 353 89L102 769Q89 806 79 818Q69 830 58 835L37 845Q17 855 8 868.5Q-1 882 -1 904Q-1 932 18.5 948Q38 964 72 964L578 964Q611 964 630.5 948Q650 932 650 904Q650 882 638.5 868.5Q627 855 601 847L574 839Q552 832 548 809Q544 786 567 718L738 216L635 137L869 762L990 685L753 80Q734 32 700.5 16Q667 0 629 0ZM1311 0L1165 0Q1123 0 1090.5 20.5Q1058 41 1041 89L803 769Q790 806 780 818Q770 830 759 835L738 845Q718 855 709 868.5Q700 882 700 904Q700 964 773 964L1267 964Q1339 964 1339 904Q1339 882 1328 867.5Q1317 853 1297 849L1253 841Q1231 837 1228.5 810.5Q1226 784 1247 719L1409 216L1316 137L1489 691Q1515 771 1512.5 801.5Q1510 832 1484 839L1457 847Q1432 855 1420 868.5Q1408 882 1408 904Q1408 932 1427.5 948Q1447 964 1480 964L1712 964Q1746 964 1765.5 948Q1785 932 1785 904Q1785 885 1776 870.5Q1767 856 1741 847L1722 840Q1704 833 1688.5 802.5Q1673 772 1649 703L1435 80Q1419 33 1384 16.5Q1349 0 1311 0Z" transform="translate(754.68,330.00) scale(0.04600,-0.04600)" fill="#ffffff"/><path d="M327 -30Q261 -30 207 3.5Q153 37 121.5 93Q90 149 90 214Q90 281 121.5 335.5Q153 390 207 423Q261 456 327 456Q395 456 449 423Q503 390 534.5 335.5Q566 281 566 214Q566 149 534.5 93Q503 37 449 3.5Q395 -30 327 -30Z" transform="translate(835.64,330.00) scale(0.04600,-0.04600)" fill="#ffffff"/>
  <path d="M411 1400L1081 1400Q1127 1400 1159.5 1408Q1192 1416 1218 1423.5Q1244 1431 1270 1431Q1319 1431 1343 1407.5Q1367 1384 1382 1328L1446 995Q1454 955 1439.5 930Q1425 905 1390 899Q1358 892 1333.5 903Q1309 914 1292 948Q1233 1066 1191 1131Q1149 1196 1112 1222.5Q1075 1249 1029 1249L978 1249L978 222Q978 197 991 181.5Q1004 166 1029 156L1067 142Q1119 122 1119 68Q1119 0 1033 0L459 0Q415 0 394 18.5Q373 37 373 68Q373 122 425 142L463 156Q489 166 501.5 181.5Q514 197 514 222L514 1249L463 1249Q418 1249 380.5 1222.5Q343 1196 301 1131Q259 1066 200 948Q183 914 158.5 903Q134 892 102 899Q68 905 53.5 930Q39 955 46 995L110 1328Q125 1384 149 1407.5Q173 1431 222 1431Q248 1431 274 1423.5Q300 1416 332.5 1408Q365 1400 411 1400Z" transform="translate(80.00,440.00) scale(0.04600,-0.04600)" fill="#ffffff"/><path d="M574 1420L574 210Q574 170 580 154Q586 138 601 130L621 119Q654 100 654 64Q654 0 577 0L134 0Q94 0 76 16Q58 32 58 60Q58 80 68 95Q78 110 101 120L123 130Q138 137 144 153.5Q150 170 150 210L150 1196Q150 1228 141.5 1241.5Q133 1255 116 1260L94 1267Q73 1274 63.5 1287Q54 1300 54 1320Q54 1344 67 1358Q80 1372 116 1386L338 1472Q389 1492 420.5 1501Q452 1510 482 1510Q527 1510 550.5 1484.5Q574 1459 574 1420ZM538 660L478 724L508 752Q649 883 749 938.5Q849 994 934 994Q1064 994 1137.5 905Q1211 816 1224 674L1269 210Q1273 170 1277 153.5Q1281 137 1296 130L1318 120Q1341 110 1351 95Q1361 80 1361 60Q1361 32 1343 16Q1325 0 1285 0L837 0Q760 0 760 64Q760 100 793 119L813 130Q828 138 836 154Q844 170 840 210L802 614Q796 678 771.5 710Q747 742 696 742Q665 742 632.5 728.5Q600 715 573 691Z" transform="translate(147.71,440.00) scale(0.04600,-0.04600)" fill="#ffffff"/><path d="M1071 608Q1071 538 1033 499.5Q995 461 924 461L331 461L331 565L598 565Q653 565 653 617Q653 743 624 797Q595 851 547 851Q512 851 484 825Q456 799 439.5 745.5Q423 692 423 610Q423 428 505 343.5Q587 259 729 259Q795 259 849 274Q903 289 955 335Q984 361 999 370Q1014 379 1028 379Q1048 379 1057.5 359Q1067 339 1067 310Q1067 221 1006.5 143.5Q946 66 838.5 19Q731 -28 588 -28Q435 -28 313 32.5Q191 93 120 201.5Q49 310 49 455Q49 618 114 739Q179 860 303.5 927Q428 994 604 994Q759 994 863 944Q967 894 1019 807Q1071 720 1071 608Z" transform="translate(210.00,440.00) scale(0.04600,-0.04600)" fill="#ffffff"/><path d="M806 196L574 -179L115 767Q98 803 81 817.5Q64 832 37 845Q17 855 8 868.5Q-1 882 -1 904Q-1 932 18.5 948Q38 964 72 964L610 964Q643 964 662.5 948Q682 932 682 904Q682 882 670.5 868.5Q659 855 633 847L606 839Q566 827 559 800Q552 773 580 708ZM580 -86L608 -22L662 79L906 688Q932 752 925 785.5Q918 819 877 832L844 843Q819 851 806.5 866.5Q794 882 794 904Q794 932 813.5 948Q833 964 866 964L1147 964Q1181 964 1200.5 948Q1220 932 1220 904Q1220 886 1209.5 871.5Q1199 857 1175 844Q1138 825 1112 796Q1086 767 1060 702L755 -37Q684 -209 626.5 -302Q569 -395 502 -430.5Q435 -466 335 -466Q190 -466 104 -388.5Q18 -311 18 -193Q18 -109 61 -60.5Q104 -12 176 -12Q247 -12 284 -52Q321 -92 350 -159L371 -207Q385 -240 403.5 -259Q422 -278 442 -278Q461 -278 477.5 -266.5Q494 -255 518 -214Q542 -173 580 -86Z" transform="translate(260.60,440.00) scale(0.04600,-0.04600)" fill="#ffffff"/><path d="" transform="translate(315.52,440.00) scale(0.04600,-0.04600)" fill="#ffffff"/><path d="M544 1420L544 74L378 18Q293 -10 259 -18Q225 -26 196 -26Q162 -26 141 -7Q120 12 120 48L120 1196Q120 1228 111.5 1241.5Q103 1255 86 1260L64 1267Q43 1274 33.5 1287Q24 1300 24 1320Q24 1344 37 1358Q50 1372 86 1386L308 1472Q362 1493 393 1501.5Q424 1510 448 1510Q496 1510 520 1484.5Q544 1459 544 1420ZM469 626L398 694Q484 834 591 914Q698 994 836 994Q955 994 1049 933Q1143 872 1197.5 764.5Q1252 657 1252 516Q1252 353 1185 230.5Q1118 108 1002 40Q886 -28 740 -28Q619 -28 528.5 23.5Q438 75 372 180L481 254Q527 188 568 160.5Q609 133 657 133Q704 133 739.5 167Q775 201 794.5 276Q814 351 814 473Q814 585 793.5 653.5Q773 722 738 753.5Q703 785 657 785Q602 785 556 747.5Q510 710 469 626Z" transform="translate(333.46,440.00) scale(0.04600,-0.04600)" fill="#ffffff"/><path d="M791 205L791 218L776 218L776 680Q776 712 767.5 725.5Q759 739 742 744L720 751Q699 758 689.5 771Q680 784 680 804Q680 828 693 842Q706 856 742 870L964 956Q1015 976 1046.5 985Q1078 994 1108 994Q1153 994 1176.5 968.5Q1200 943 1200 904L1200 210Q1200 170 1206 153.5Q1212 137 1227 130L1249 120Q1272 110 1282 95Q1292 80 1292 60Q1292 32 1274 16Q1256 0 1216 0L971 0Q900 0 845.5 61Q791 122 791 205ZM130 292L130 680Q130 712 121.5 725.5Q113 739 96 744L74 751Q53 758 43.5 771Q34 784 34 804Q34 828 47 842Q60 856 96 870L318 956Q372 977 403 985.5Q434 994 458 994Q506 994 530 968.5Q554 943 554 904L554 352Q554 288 583.5 256Q613 224 666 224Q699 224 735 237Q771 250 799 275L834 306L894 242L864 214Q723 79 619 25.5Q515 -28 428 -28Q295 -28 212.5 61Q130 150 130 292Z" transform="translate(392.34,440.00) scale(0.04600,-0.04600)" fill="#ffffff"/><path d="M574 904L574 210Q574 170 580 153.5Q586 137 601 130L623 120Q646 110 656 95Q666 80 666 60Q666 32 648 16Q630 0 590 0L134 0Q94 0 76 16Q58 32 58 60Q58 80 68 95Q78 110 101 120L123 130Q138 137 144 153.5Q150 170 150 210L150 680Q150 712 141.5 725.5Q133 739 116 744L94 751Q73 758 63.5 771Q54 784 54 804Q54 828 67 842Q80 856 116 870L338 956Q392 977 423 985.5Q454 994 478 994Q526 994 550 968.5Q574 943 574 904ZM340 1082Q228 1082 163 1134Q98 1186 98 1276Q98 1365 163 1416Q228 1467 340 1467Q452 1467 517 1416Q582 1365 582 1276Q582 1186 517 1134Q452 1082 340 1082Z" transform="translate(453.52,440.00) scale(0.04600,-0.04600)" fill="#ffffff"/><path d="M574 1420L574 210Q574 170 580 153.5Q586 137 601 130L623 120Q646 110 656 95Q666 80 666 60Q666 32 648 16Q630 0 590 0L134 0Q94 0 76 16Q58 32 58 60Q58 80 68 95Q78 110 101 120L123 130Q138 137 144 153.5Q150 170 150 210L150 1196Q150 1228 141.5 1241.5Q133 1255 116 1260L94 1267Q73 1274 63.5 1287Q54 1300 54 1320Q54 1344 67 1358Q80 1372 116 1386L338 1472Q392 1493 423 1501.5Q454 1510 478 1510Q526 1510 550 1484.5Q574 1459 574 1420Z" transform="translate(484.98,440.00) scale(0.04600,-0.04600)" fill="#ffffff"/><path d="M772 177L757 178L757 1196Q757 1228 748.5 1241.5Q740 1255 723 1260L701 1267Q680 1274 670.5 1287Q661 1300 661 1320Q661 1344 674 1358Q687 1372 723 1386L945 1472Q996 1492 1027.5 1501Q1059 1510 1089 1510Q1134 1510 1157.5 1484.5Q1181 1459 1181 1420L1181 210Q1181 170 1187 153.5Q1193 137 1208 130L1230 120Q1253 110 1263 95Q1273 80 1273 60Q1273 32 1255 16Q1237 0 1197 0L942 0Q875 0 823.5 49Q772 98 772 165ZM49 450Q49 613 116 735.5Q183 858 299 926Q415 994 561 994Q683 994 773 942.5Q863 891 929 786L820 712Q774 778 733 805.5Q692 833 644 833Q597 833 561.5 799Q526 765 506.5 690.5Q487 616 487 493Q487 381 507.5 312.5Q528 244 563.5 212.5Q599 181 644 181Q700 181 745.5 218.5Q791 256 832 340L903 272Q818 133 710.5 52.5Q603 -28 465 -28Q346 -28 252 33Q158 94 103.5 201.5Q49 309 49 450Z" transform="translate(516.45,440.00) scale(0.04600,-0.04600)" fill="#ffffff"/><path d="" transform="translate(576.29,440.00) scale(0.04600,-0.04600)" fill="#ffffff"/><path d="M574 904L574 210Q574 170 580 153.5Q586 137 601 130L623 120Q646 110 656 95Q666 80 666 60Q666 32 648 16Q630 0 590 0L134 0Q94 0 76 16Q58 32 58 60Q58 80 68 95Q78 110 101 120L123 130Q138 137 144 153.5Q150 170 150 210L150 680Q150 712 141.5 725.5Q133 739 116 744L94 751Q73 758 63.5 771Q54 784 54 804Q54 828 67 842Q80 856 116 870L338 956Q392 977 423 985.5Q454 994 478 994Q526 994 550 968.5Q574 943 574 904ZM340 1082Q228 1082 163 1134Q98 1186 98 1276Q98 1365 163 1416Q228 1467 340 1467Q452 1467 517 1416Q582 1365 582 1276Q582 1186 517 1134Q452 1082 340 1082Z" transform="translate(594.23,440.00) scale(0.04600,-0.04600)" fill="#ffffff"/><path d="M96 834L64 847Q42 856 31 870Q20 884 20 904Q20 933 39.5 948.5Q59 964 90 964L145 964Q164 964 180.5 974Q197 984 223 1010L386 1175Q419 1208 447.5 1224Q476 1240 502 1240Q531 1240 547.5 1221Q564 1202 564 1166L564 364Q564 291 589 253Q614 215 661 215Q699 215 719.5 234Q740 253 752.5 277.5Q765 302 779 321Q793 340 817 340Q837 340 849 326Q861 312 861 278Q861 193 812 123.5Q763 54 677 13Q591 -28 481 -28Q318 -28 229 50.5Q140 129 140 288L140 769Q140 798 129.5 811Q119 824 96 834ZM418 822L418 964L783 964Q814 964 832.5 950.5Q851 937 851 912Q851 874 814 848Q777 822 692 822Z" transform="translate(625.70,440.00) scale(0.04600,-0.04600)" fill="#ffffff"/><path d="M327 -30Q261 -30 207 3.5Q153 37 121.5 93Q90 149 90 214Q90 281 121.5 335.5Q153 390 207 423Q261 456 327 456Q395 456 449 423Q503 390 534.5 335.5Q566 281 566 214Q566 149 534.5 93Q503 37 449 3.5Q395 -30 327 -30Z" transform="translate(665.44,440.00) scale(0.04600,-0.04600)" fill="#ffffff"/>
  <path d="" transform="translate(694.70,440.00) scale(0.04600,-0.04600)" fill="#e0457b"/><path d="M411 1400L1081 1400Q1127 1400 1159.5 1408Q1192 1416 1218 1423.5Q1244 1431 1270 1431Q1319 1431 1343 1407.5Q1367 1384 1382 1328L1446 995Q1454 955 1439.5 930Q1425 905 1390 899Q1358 892 1333.5 903Q1309 914 1292 948Q1233 1066 1191 1131Q1149 1196 1112 1222.5Q1075 1249 1029 1249L978 1249L978 222Q978 197 991 181.5Q1004 166 1029 156L1067 142Q1119 122 1119 68Q1119 0 1033 0L459 0Q415 0 394 18.5Q373 37 373 68Q373 122 425 142L463 156Q489 166 501.5 181.5Q514 197 514 222L514 1249L463 1249Q418 1249 380.5 1222.5Q343 1196 301 1131Q259 1066 200 948Q183 914 158.5 903Q134 892 102 899Q68 905 53.5 930Q39 955 46 995L110 1328Q125 1384 149 1407.5Q173 1431 222 1431Q248 1431 274 1423.5Q300 1416 332.5 1408Q365 1400 411 1400Z" transform="translate(712.64,440.00) scale(0.04600,-0.04600)" fill="#e0457b"/><path d="M574 1420L574 210Q574 170 580 154Q586 138 601 130L621 119Q654 100 654 64Q654 0 577 0L134 0Q94 0 76 16Q58 32 58 60Q58 80 68 95Q78 110 101 120L123 130Q138 137 144 153.5Q150 170 150 210L150 1196Q150 1228 141.5 1241.5Q133 1255 116 1260L94 1267Q73 1274 63.5 1287Q54 1300 54 1320Q54 1344 67 1358Q80 1372 116 1386L338 1472Q389 1492 420.5 1501Q452 1510 482 1510Q527 1510 550.5 1484.5Q574 1459 574 1420ZM538 660L478 724L508 752Q649 883 749 938.5Q849 994 934 994Q1064 994 1137.5 905Q1211 816 1224 674L1269 210Q1273 170 1277 153.5Q1281 137 1296 130L1318 120Q1341 110 1351 95Q1361 80 1361 60Q1361 32 1343 16Q1325 0 1285 0L837 0Q760 0 760 64Q760 100 793 119L813 130Q828 138 836 154Q844 170 840 210L802 614Q796 678 771.5 710Q747 742 696 742Q665 742 632.5 728.5Q600 715 573 691Z" transform="translate(780.35,440.00) scale(0.04600,-0.04600)" fill="#e0457b"/><path d="M1071 608Q1071 538 1033 499.5Q995 461 924 461L331 461L331 565L598 565Q653 565 653 617Q653 743 624 797Q595 851 547 851Q512 851 484 825Q456 799 439.5 745.5Q423 692 423 610Q423 428 505 343.5Q587 259 729 259Q795 259 849 274Q903 289 955 335Q984 361 999 370Q1014 379 1028 379Q1048 379 1057.5 359Q1067 339 1067 310Q1067 221 1006.5 143.5Q946 66 838.5 19Q731 -28 588 -28Q435 -28 313 32.5Q191 93 120 201.5Q49 310 49 455Q49 618 114 739Q179 860 303.5 927Q428 994 604 994Q759 994 863 944Q967 894 1019 807Q1071 720 1071 608Z" transform="translate(842.63,440.00) scale(0.04600,-0.04600)" fill="#e0457b"/><path d="M806 196L574 -179L115 767Q98 803 81 817.5Q64 832 37 845Q17 855 8 868.5Q-1 882 -1 904Q-1 932 18.5 948Q38 964 72 964L610 964Q643 964 662.5 948Q682 932 682 904Q682 882 670.5 868.5Q659 855 633 847L606 839Q566 827 559 800Q552 773 580 708ZM580 -86L608 -22L662 79L906 688Q932 752 925 785.5Q918 819 877 832L844 843Q819 851 806.5 866.5Q794 882 794 904Q794 932 813.5 948Q833 964 866 964L1147 964Q1181 964 1200.5 948Q1220 932 1220 904Q1220 886 1209.5 871.5Q1199 857 1175 844Q1138 825 1112 796Q1086 767 1060 702L755 -37Q684 -209 626.5 -302Q569 -395 502 -430.5Q435 -466 335 -466Q190 -466 104 -388.5Q18 -311 18 -193Q18 -109 61 -60.5Q104 -12 176 -12Q247 -12 284 -52Q321 -92 350 -159L371 -207Q385 -240 403.5 -259Q422 -278 442 -278Q461 -278 477.5 -266.5Q494 -255 518 -214Q542 -173 580 -86Z" transform="translate(893.23,440.00) scale(0.04600,-0.04600)" fill="#e0457b"/><path d="" transform="translate(948.16,440.00) scale(0.04600,-0.04600)" fill="#e0457b"/><path d="M536 99Q593 99 620.5 124Q648 149 648 184Q648 205 640 223.5Q632 242 603 257.5Q574 273 511 283Q325 314 227.5 365.5Q130 417 95 487.5Q60 558 60 646Q60 809 173.5 901.5Q287 994 509 994Q585 994 630.5 982Q676 970 703.5 958Q731 946 753 946Q778 946 791.5 958Q805 970 819.5 982Q834 994 861 994Q882 994 899 980Q916 966 927 928L979 751Q995 699 988.5 668Q982 637 950 625Q918 613 894.5 624Q871 635 848 668Q803 735 753 779Q703 823 649 845Q595 867 536 867Q469 867 435.5 842Q402 817 402 775Q402 749 415.5 730Q429 711 471 695.5Q513 680 596 665Q742 639 827 590.5Q912 542 949 471Q986 400 986 304Q986 204 932 129Q878 54 784.5 13Q691 -28 571 -28Q497 -28 454.5 -15.5Q412 -3 385 9.5Q358 22 332 22Q306 22 287 9.5Q268 -3 250 -15.5Q232 -28 208 -28Q186 -28 171 -12Q156 4 149 43L118 214Q109 265 117 290.5Q125 316 153 328Q184 341 208 327.5Q232 314 257 279Q326 180 397 139.5Q468 99 536 99Z" transform="translate(966.10,440.00) scale(0.04600,-0.04600)" fill="#e0457b"/><path d="M574 1420L574 210Q574 170 580 154Q586 138 601 130L621 119Q654 100 654 64Q654 0 577 0L134 0Q94 0 76 16Q58 32 58 60Q58 80 68 95Q78 110 101 120L123 130Q138 137 144 153.5Q150 170 150 210L150 1196Q150 1228 141.5 1241.5Q133 1255 116 1260L94 1267Q73 1274 63.5 1287Q54 1300 54 1320Q54 1344 67 1358Q80 1372 116 1386L338 1472Q389 1492 420.5 1501Q452 1510 482 1510Q527 1510 550.5 1484.5Q574 1459 574 1420ZM538 660L478 724L508 752Q649 883 749 938.5Q849 994 934 994Q1064 994 1137.5 905Q1211 816 1224 674L1269 210Q1273 170 1277 153.5Q1281 137 1296 130L1318 120Q1341 110 1351 95Q1361 80 1361 60Q1361 32 1343 16Q1325 0 1285 0L837 0Q760 0 760 64Q760 100 793 119L813 130Q828 138 836 154Q844 170 840 210L802 614Q796 678 771.5 710Q747 742 696 742Q665 742 632.5 728.5Q600 715 573 691Z" transform="translate(1014.40,440.00) scale(0.04600,-0.04600)" fill="#e0457b"/><path d="M574 904L574 210Q574 170 580 153.5Q586 137 601 130L623 120Q646 110 656 95Q666 80 666 60Q666 32 648 16Q630 0 590 0L134 0Q94 0 76 16Q58 32 58 60Q58 80 68 95Q78 110 101 120L123 130Q138 137 144 153.5Q150 170 150 210L150 680Q150 712 141.5 725.5Q133 739 116 744L94 751Q73 758 63.5 771Q54 784 54 804Q54 828 67 842Q80 856 116 870L338 956Q392 977 423 985.5Q454 994 478 994Q526 994 550 968.5Q574 943 574 904ZM340 1082Q228 1082 163 1134Q98 1186 98 1276Q98 1365 163 1416Q228 1467 340 1467Q452 1467 517 1416Q582 1365 582 1276Q582 1186 517 1134Q452 1082 340 1082Z" transform="translate(1076.68,440.00) scale(0.04600,-0.04600)" fill="#e0457b"/><path d="M554 904L554 814L574 776L574 -256Q574 -296 580 -312.5Q586 -329 601 -336L623 -346Q646 -356 656 -371Q666 -386 666 -406Q666 -434 648 -450Q630 -466 590 -466L134 -466Q94 -466 76 -450Q58 -434 58 -406Q58 -386 68 -371Q78 -356 101 -346L123 -336Q138 -329 144 -312.5Q150 -296 150 -256L150 680Q150 712 141.5 725.5Q133 739 116 744L94 751Q73 758 63.5 771Q54 784 54 804Q54 828 67 840.5Q80 853 116 869L318 956Q367 977 399 985.5Q431 994 457 994Q506 994 530 968.5Q554 943 554 904ZM499 626L428 694Q514 834 621 914Q728 994 866 994Q985 994 1079 933Q1173 872 1227.5 764.5Q1282 657 1282 516Q1282 353 1215 230.5Q1148 108 1032 40Q916 -28 770 -28Q649 -28 558.5 23.5Q468 75 402 180L511 254Q557 188 598 160.5Q639 133 687 133Q734 133 769.5 167Q805 201 824.5 276Q844 351 844 473Q844 585 823.5 653.5Q803 722 768 753.5Q733 785 687 785Q632 785 586 747.5Q540 710 499 626Z" transform="translate(1108.15,440.00) scale(0.04600,-0.04600)" fill="#e0457b"/><path d="M327 -30Q261 -30 207 3.5Q153 37 121.5 93Q90 149 90 214Q90 281 121.5 335.5Q153 390 207 423Q261 456 327 456Q395 456 449 423Q503 390 534.5 335.5Q566 281 566 214Q566 149 534.5 93Q503 37 449 3.5Q395 -30 327 -30Z" transform="translate(1168.41,440.00) scale(0.04600,-0.04600)" fill="#e0457b"/>
  <path d="M52 0L593 1490L813 1490L1361 0L1161 0L845 884Q816 966 777.5 1088.5Q739 1211 684 1401L720 1401Q666 1209 626.5 1084.5Q587 960 561 884L254 0ZM324 416L324 582L1089 582L1089 416Z" transform="translate(80.00,500.00) scale(0.01270,-0.01270)" fill="#d8d2c7"/><path d="M537 -14Q424 -14 338.5 32.5Q253 79 205.5 173Q158 267 158 408L158 1118L338 1118L338 423Q338 294 406 221Q474 148 591 148Q671 148 734.5 183Q798 218 835 285.5Q872 353 872 448L872 1118L1053 1118L1053 0L879 0L879 271L903 271Q851 114 755.5 50Q660 -14 537 -14Z" transform="translate(97.94,500.00) scale(0.01270,-0.01270)" fill="#d8d2c7"/><path d="M598 1118L598 964L20 964L20 1118ZM188 1384L368 1384L368 290Q368 215 398.5 180.5Q429 146 500 146Q517 146 543.5 150Q570 154 592 158L629 6Q601 -4 565.5 -9Q530 -14 495 -14Q350 -14 269 62.5Q188 139 188 276Z" transform="translate(113.31,500.00) scale(0.01270,-0.01270)" fill="#d8d2c7"/><path d="M613 -24Q461 -24 346.5 48Q232 120 168 250Q104 380 104 552Q104 727 168 857.5Q232 988 346.5 1060Q461 1132 613 1132Q766 1132 881 1060Q996 988 1060 857.5Q1124 727 1124 552Q1124 380 1060 250Q996 120 881 48Q766 -24 613 -24ZM613 137Q726 137 799 195Q872 253 907 347.5Q942 442 942 552Q942 663 907 758.5Q872 854 799 912.5Q726 971 613 971Q501 971 429 912.5Q357 854 322 759Q287 664 287 552Q287 442 322 347.5Q357 253 429 195Q501 137 613 137Z" transform="translate(121.82,500.00) scale(0.01270,-0.01270)" fill="#d8d2c7"/><path d="M338 670L338 0L158 0L158 1118L331 1118L332 847L307 847Q358 1002 452.5 1067Q547 1132 674 1132Q787 1132 872 1085.5Q957 1039 1004.5 945.5Q1052 852 1052 710L1052 0L872 0L872 695Q872 824 804.5 897Q737 970 620 970Q540 970 476 935Q412 900 375 833Q338 766 338 670Z" transform="translate(137.41,500.00) scale(0.01270,-0.01270)" fill="#d8d2c7"/><path d="M613 -24Q461 -24 346.5 48Q232 120 168 250Q104 380 104 552Q104 727 168 857.5Q232 988 346.5 1060Q461 1132 613 1132Q766 1132 881 1060Q996 988 1060 857.5Q1124 727 1124 552Q1124 380 1060 250Q996 120 881 48Q766 -24 613 -24ZM613 137Q726 137 799 195Q872 253 907 347.5Q942 442 942 552Q942 663 907 758.5Q872 854 799 912.5Q726 971 613 971Q501 971 429 912.5Q357 854 322 759Q287 664 287 552Q287 442 322 347.5Q357 253 429 195Q501 137 613 137Z" transform="translate(152.77,500.00) scale(0.01270,-0.01270)" fill="#d8d2c7"/><path d="M158 0L158 1118L333 1118L334 868L320 868Q343 959 392.5 1018.5Q442 1078 508.5 1108Q575 1138 647 1138Q769 1138 844.5 1063Q920 988 942 866L918 866Q938 950 991 1011Q1044 1072 1119.5 1105Q1195 1138 1284 1138Q1381 1138 1461 1096Q1541 1054 1588.5 969Q1636 884 1636 754L1636 0L1456 0L1456 749Q1456 870 1388 922Q1320 974 1230 974Q1155 974 1100.5 942.5Q1046 911 1016.5 856Q987 801 987 730L987 0L807 0L807 767Q807 860 745 917Q683 974 588 974Q523 974 465.5 943.5Q408 913 373 853Q338 793 338 704L338 0Z" transform="translate(168.36,500.00) scale(0.01270,-0.01270)" fill="#d8d2c7"/><path d="M613 -24Q461 -24 346.5 48Q232 120 168 250Q104 380 104 552Q104 727 168 857.5Q232 988 346.5 1060Q461 1132 613 1132Q766 1132 881 1060Q996 988 1060 857.5Q1124 727 1124 552Q1124 380 1060 250Q996 120 881 48Q766 -24 613 -24ZM613 137Q726 137 799 195Q872 253 907 347.5Q942 442 942 552Q942 663 907 758.5Q872 854 799 912.5Q726 971 613 971Q501 971 429 912.5Q357 854 322 759Q287 664 287 552Q287 442 322 347.5Q357 253 429 195Q501 137 613 137Z" transform="translate(191.13,500.00) scale(0.01270,-0.01270)" fill="#d8d2c7"/><path d="M537 -14Q424 -14 338.5 32.5Q253 79 205.5 173Q158 267 158 408L158 1118L338 1118L338 423Q338 294 406 221Q474 148 591 148Q671 148 734.5 183Q798 218 835 285.5Q872 353 872 448L872 1118L1053 1118L1053 0L879 0L879 271L903 271Q851 114 755.5 50Q660 -14 537 -14Z" transform="translate(206.72,500.00) scale(0.01270,-0.01270)" fill="#d8d2c7"/><path d="M538 -24Q423 -24 333.5 9.5Q244 43 186 109Q128 175 108 271L279 312Q303 220 369.5 177Q436 134 536 134Q653 134 722.5 184Q792 234 792 303Q792 361 751.5 399.5Q711 438 628 457L442 501Q290 537 216 612.5Q142 688 142 806Q142 902 196 975.5Q250 1049 343.5 1090.5Q437 1132 556 1132Q671 1132 751.5 1097.5Q832 1063 882.5 1002.5Q933 942 958 863L795 821Q772 881 718.5 930Q665 979 557 979Q457 979 390.5 933Q324 887 324 817Q324 755 369 717.5Q414 680 512 657L681 617Q833 581 906 505.5Q979 430 979 315Q979 217 923.5 140.5Q868 64 768.5 20Q669 -24 538 -24Z" transform="translate(222.10,500.00) scale(0.01270,-0.01270)" fill="#d8d2c7"/><path d="" transform="translate(235.82,500.00) scale(0.01270,-0.01270)" fill="#d8d2c7"/><path d="M52 0L593 1490L813 1490L1361 0L1161 0L845 884Q816 966 777.5 1088.5Q739 1211 684 1401L720 1401Q666 1209 626.5 1084.5Q587 960 561 884L254 0ZM324 416L324 582L1089 582L1089 416Z" transform="translate(243.13,500.00) scale(0.01270,-0.01270)" fill="#d8d2c7"/><path d="M370 1490L370 0L180 0L180 1490Z" transform="translate(261.07,500.00) scale(0.01270,-0.01270)" fill="#d8d2c7"/><path d="M798 719L798 553L144 553L144 719Z" transform="translate(268.06,500.00) scale(0.01270,-0.01270)" fill="#d8d2c7"/><path d="M471 -26Q365 -26 278.5 14Q192 54 141 131Q90 208 90 318Q90 414 128 474Q166 534 229.5 568.5Q293 603 370 620Q447 637 525 647Q625 660 688 667Q751 674 781.5 691Q812 708 812 749L812 755Q812 825 786 873.5Q760 922 708 948Q656 974 578 974Q498 974 441 949Q384 924 348.5 886.5Q313 849 295 810L122 867Q165 969 238 1026.5Q311 1084 399 1108Q487 1132 573 1132Q629 1132 700.5 1118.5Q772 1105 838.5 1065Q905 1025 948.5 946.5Q992 868 992 737L992 0L815 0L815 152L803 152Q784 113 742 71.5Q700 30 633 2Q566 -26 471 -26ZM502 133Q602 133 671 172Q740 211 776 273.5Q812 336 812 404L812 559Q801 546 764 535.5Q727 525 679.5 517Q632 509 587.5 503.5Q543 498 517 495Q452 487 395.5 467.5Q339 448 305 410.5Q271 373 271 309Q271 251 301 212Q331 173 383 153Q435 133 502 133Z" transform="translate(280.01,500.00) scale(0.01270,-0.01270)" fill="#d8d2c7"/><path d="M611 -442Q487 -442 396.5 -410.5Q306 -379 246 -327Q186 -275 151 -214L297 -120Q321 -152 356.5 -191Q392 -230 452.5 -257.5Q513 -285 611 -285Q745 -285 831.5 -221Q918 -157 918 -19L918 205L901 205Q882 173 847.5 129Q813 85 748.5 51.5Q684 18 576 18Q442 18 335 81.5Q228 145 166 267Q104 389 104 564Q104 737 165 864.5Q226 992 333.5 1062Q441 1132 580 1132Q688 1132 752.5 1096.5Q817 1061 852 1015Q887 969 906 939L923 939L923 1118L1098 1118L1098 -29Q1098 -173 1033 -264.5Q968 -356 857.5 -399Q747 -442 611 -442ZM606 178Q708 178 778 224.5Q848 271 884 358.5Q920 446 920 568Q920 687 884.5 777.5Q849 868 779 919.5Q709 971 606 971Q500 971 429 916.5Q358 862 322.5 771Q287 680 287 568Q287 453 323 365Q359 277 430 227.5Q501 178 606 178Z" transform="translate(294.61,500.00) scale(0.01270,-0.01270)" fill="#d8d2c7"/><path d="M628 -24Q466 -24 348.5 48Q231 120 167.5 249Q104 378 104 550Q104 722 166 853Q228 984 341.5 1058Q455 1132 607 1132Q696 1132 782.5 1102.5Q869 1073 939.5 1007.5Q1010 942 1052 835Q1094 728 1094 573L1094 498L226 498L226 650L997 650L913 594Q913 704 878.5 789.5Q844 875 776 923.5Q708 972 607 972Q506 972 434 922.5Q362 873 324 793.5Q286 714 286 623L286 522Q286 398 329 311.5Q372 225 449.5 180.5Q527 136 629 136Q695 136 749 155Q803 174 842 212.5Q881 251 902 308L1076 260Q1050 176 988 112Q926 48 834.5 12Q743 -24 628 -24Z" transform="translate(310.56,500.00) scale(0.01270,-0.01270)" fill="#d8d2c7"/><path d="M338 670L338 0L158 0L158 1118L331 1118L332 847L307 847Q358 1002 452.5 1067Q547 1132 674 1132Q787 1132 872 1085.5Q957 1039 1004.5 945.5Q1052 852 1052 710L1052 0L872 0L872 695Q872 824 804.5 897Q737 970 620 970Q540 970 476 935Q412 900 375 833Q338 766 338 670Z" transform="translate(325.72,500.00) scale(0.01270,-0.01270)" fill="#d8d2c7"/><path d="M598 1118L598 964L20 964L20 1118ZM188 1384L368 1384L368 290Q368 215 398.5 180.5Q429 146 500 146Q517 146 543.5 150Q570 154 592 158L629 6Q601 -4 565.5 -9Q530 -14 495 -14Q350 -14 269 62.5Q188 139 188 276Z" transform="translate(341.08,500.00) scale(0.01270,-0.01270)" fill="#d8d2c7"/><path d="" transform="translate(349.58,500.00) scale(0.01270,-0.01270)" fill="#d8d2c7"/><path d="M613 -24Q461 -24 346.5 48Q232 120 168 250Q104 380 104 552Q104 727 168 857.5Q232 988 346.5 1060Q461 1132 613 1132Q694 1132 766 1111Q838 1090 897.5 1050.5Q957 1011 1000 953.5Q1043 896 1066 823L893 774Q881 817 856 853Q831 889 795.5 915.5Q760 942 714 956.5Q668 971 613 971Q501 971 429 912.5Q357 854 322 759Q287 664 287 552Q287 442 322 347.5Q357 253 429 195Q501 137 613 137Q669 137 716 152Q763 167 799.5 194.5Q836 222 861 260Q886 298 898 343L1070 294Q1048 219 1004.5 160.5Q961 102 901 60.5Q841 19 768 -2.5Q695 -24 613 -24Z" transform="translate(356.90,500.00) scale(0.01270,-0.01270)" fill="#d8d2c7"/><path d="M158 0L158 1118L332 1118L332 946L344 946Q375 1031 454.5 1082.5Q534 1134 634 1134Q654 1134 681.5 1133Q709 1132 725 1131L725 950Q717 952 685 956Q653 960 617 960Q537 960 473.5 926.5Q410 893 374 834.5Q338 776 338 700L338 0Z" transform="translate(371.75,500.00) scale(0.01270,-0.01270)" fill="#d8d2c7"/><path d="M628 -24Q466 -24 348.5 48Q231 120 167.5 249Q104 378 104 550Q104 722 166 853Q228 984 341.5 1058Q455 1132 607 1132Q696 1132 782.5 1102.5Q869 1073 939.5 1007.5Q1010 942 1052 835Q1094 728 1094 573L1094 498L226 498L226 650L997 650L913 594Q913 704 878.5 789.5Q844 875 776 923.5Q708 972 607 972Q506 972 434 922.5Q362 873 324 793.5Q286 714 286 623L286 522Q286 398 329 311.5Q372 225 449.5 180.5Q527 136 629 136Q695 136 749 155Q803 174 842 212.5Q881 251 902 308L1076 260Q1050 176 988 112Q926 48 834.5 12Q743 -24 628 -24Z" transform="translate(381.54,500.00) scale(0.01270,-0.01270)" fill="#d8d2c7"/><path d="M409 0L70 1118L261 1118L397 630Q425 530 457 403.5Q489 277 520 117L489 117Q519 270 550 397Q581 524 610 630L744 1118L936 1118L1068 630Q1096 527 1126.5 400.5Q1157 274 1187 117L1155 117Q1187 272 1218.5 398.5Q1250 525 1279 630L1415 1118L1606 1118L1267 0L1088 0L943 506Q921 583 900 663Q879 743 859 827Q839 911 818 998L858 998Q838 912 817.5 827.5Q797 743 776 662Q755 581 733 506L588 0Z" transform="translate(396.70,500.00) scale(0.01270,-0.01270)" fill="#d8d2c7"/><path d="M538 -24Q423 -24 333.5 9.5Q244 43 186 109Q128 175 108 271L279 312Q303 220 369.5 177Q436 134 536 134Q653 134 722.5 184Q792 234 792 303Q792 361 751.5 399.5Q711 438 628 457L442 501Q290 537 216 612.5Q142 688 142 806Q142 902 196 975.5Q250 1049 343.5 1090.5Q437 1132 556 1132Q671 1132 751.5 1097.5Q832 1063 882.5 1002.5Q933 942 958 863L795 821Q772 881 718.5 930Q665 979 557 979Q457 979 390.5 933Q324 887 324 817Q324 755 369 717.5Q414 680 512 657L681 617Q833 581 906 505.5Q979 430 979 315Q979 217 923.5 140.5Q868 64 768.5 20Q669 -24 538 -24Z" transform="translate(417.97,500.00) scale(0.01270,-0.01270)" fill="#d8d2c7"/><path d="" transform="translate(431.70,500.00) scale(0.01270,-0.01270)" fill="#d8d2c7"/><path d="M613 -24Q461 -24 346.5 48Q232 120 168 250Q104 380 104 552Q104 727 168 857.5Q232 988 346.5 1060Q461 1132 613 1132Q766 1132 881 1060Q996 988 1060 857.5Q1124 727 1124 552Q1124 380 1060 250Q996 120 881 48Q766 -24 613 -24ZM613 137Q726 137 799 195Q872 253 907 347.5Q942 442 942 552Q942 663 907 758.5Q872 854 799 912.5Q726 971 613 971Q501 971 429 912.5Q357 854 322 759Q287 664 287 552Q287 442 322 347.5Q357 253 429 195Q501 137 613 137Z" transform="translate(439.01,500.00) scale(0.01270,-0.01270)" fill="#d8d2c7"/><path d="M338 670L338 0L158 0L158 1118L331 1118L332 847L307 847Q358 1002 452.5 1067Q547 1132 674 1132Q787 1132 872 1085.5Q957 1039 1004.5 945.5Q1052 852 1052 710L1052 0L872 0L872 695Q872 824 804.5 897Q737 970 620 970Q540 970 476 935Q412 900 375 833Q338 766 338 670Z" transform="translate(454.60,500.00) scale(0.01270,-0.01270)" fill="#d8d2c7"/><path d="" transform="translate(469.96,500.00) scale(0.01270,-0.01270)" fill="#d8d2c7"/><path d="M645 0L285 0L285 168L633 168Q815 168 934.5 237.5Q1054 307 1113 437Q1172 567 1172 748Q1172 927 1113.5 1055.5Q1055 1184 939.5 1253Q824 1322 651 1322L277 1322L277 1490L664 1490Q882 1490 1036.5 1401Q1191 1312 1273.5 1145.5Q1356 979 1356 748Q1356 515 1273 347.5Q1190 180 1031 90Q872 0 645 0ZM370 1490L370 0L180 0L180 1490Z" transform="translate(477.27,500.00) scale(0.01270,-0.01270)" fill="#d8d2c7"/><path d="M158 0L158 1118L338 1118L338 0ZM249 1301Q198 1301 161 1336Q124 1371 124 1420Q124 1470 161 1504.5Q198 1539 249 1539Q301 1539 338 1504.5Q375 1470 375 1420Q375 1371 338 1336Q301 1301 249 1301Z" transform="translate(496.04,500.00) scale(0.01270,-0.01270)" fill="#d8d2c7"/><path d="M538 -24Q423 -24 333.5 9.5Q244 43 186 109Q128 175 108 271L279 312Q303 220 369.5 177Q436 134 536 134Q653 134 722.5 184Q792 234 792 303Q792 361 751.5 399.5Q711 438 628 457L442 501Q290 537 216 612.5Q142 688 142 806Q142 902 196 975.5Q250 1049 343.5 1090.5Q437 1132 556 1132Q671 1132 751.5 1097.5Q832 1063 882.5 1002.5Q933 942 958 863L795 821Q772 881 718.5 930Q665 979 557 979Q457 979 390.5 933Q324 887 324 817Q324 755 369 717.5Q414 680 512 657L681 617Q833 581 906 505.5Q979 430 979 315Q979 217 923.5 140.5Q868 64 768.5 20Q669 -24 538 -24Z" transform="translate(502.33,500.00) scale(0.01270,-0.01270)" fill="#d8d2c7"/><path d="M613 -24Q461 -24 346.5 48Q232 120 168 250Q104 380 104 552Q104 727 168 857.5Q232 988 346.5 1060Q461 1132 613 1132Q694 1132 766 1111Q838 1090 897.5 1050.5Q957 1011 1000 953.5Q1043 896 1066 823L893 774Q881 817 856 853Q831 889 795.5 915.5Q760 942 714 956.5Q668 971 613 971Q501 971 429 912.5Q357 854 322 759Q287 664 287 552Q287 442 322 347.5Q357 253 429 195Q501 137 613 137Q669 137 716 152Q763 167 799.5 194.5Q836 222 861 260Q886 298 898 343L1070 294Q1048 219 1004.5 160.5Q961 102 901 60.5Q841 19 768 -2.5Q695 -24 613 -24Z" transform="translate(516.06,500.00) scale(0.01270,-0.01270)" fill="#d8d2c7"/><path d="M613 -24Q461 -24 346.5 48Q232 120 168 250Q104 380 104 552Q104 727 168 857.5Q232 988 346.5 1060Q461 1132 613 1132Q766 1132 881 1060Q996 988 1060 857.5Q1124 727 1124 552Q1124 380 1060 250Q996 120 881 48Q766 -24 613 -24ZM613 137Q726 137 799 195Q872 253 907 347.5Q942 442 942 552Q942 663 907 758.5Q872 854 799 912.5Q726 971 613 971Q501 971 429 912.5Q357 854 322 759Q287 664 287 552Q287 442 322 347.5Q357 253 429 195Q501 137 613 137Z" transform="translate(530.91,500.00) scale(0.01270,-0.01270)" fill="#d8d2c7"/><path d="M158 0L158 1118L332 1118L332 946L344 946Q375 1031 454.5 1082.5Q534 1134 634 1134Q654 1134 681.5 1133Q709 1132 725 1131L725 950Q717 952 685 956Q653 960 617 960Q537 960 473.5 926.5Q410 893 374 834.5Q338 776 338 700L338 0Z" transform="translate(546.50,500.00) scale(0.01270,-0.01270)" fill="#d8d2c7"/><path d="M577 -24Q438 -24 331 47Q224 118 164 248Q104 378 104 556Q104 733 164.5 862.5Q225 992 332 1062Q439 1132 578 1132Q687 1132 751 1096Q815 1060 849.5 1014.5Q884 969 902 939L916 939L916 1490L1096 1490L1096 0L922 0L922 173L902 173Q884 142 848.5 95.5Q813 49 748.5 12.5Q684 -24 577 -24ZM604 137Q706 137 776 190.5Q846 244 882 339Q918 434 918 558Q918 682 882.5 774.5Q847 867 777 919Q707 971 604 971Q498 971 427.5 916Q357 861 322 767.5Q287 674 287 558Q287 441 322.5 345.5Q358 250 429 193.5Q500 137 604 137Z" transform="translate(556.29,500.00) scale(0.01270,-0.01270)" fill="#d8d2c7"/><path d="M295 -13Q239 -13 199.5 26.5Q160 66 160 122Q160 178 199.5 217.5Q239 257 295 257Q351 257 390.5 217.5Q430 178 430 122Q430 66 390.5 26.5Q351 -13 295 -13Z" transform="translate(572.21,500.00) scale(0.01270,-0.01270)" fill="#d8d2c7"/><path d="" transform="translate(579.70,500.00) scale(0.01270,-0.01270)" fill="#d8d2c7"/><path d="M600 0L600 610L52 1490L272 1490L567 1009Q617 928 655.5 854.5Q694 781 735 669L659 669Q700 783 739 857.5Q778 932 825 1009L1119 1490L1338 1490L790 610L790 0Z" transform="translate(587.01,500.00) scale(0.01270,-0.01270)" fill="#d8d2c7"/><path d="M613 -24Q461 -24 346.5 48Q232 120 168 250Q104 380 104 552Q104 727 168 857.5Q232 988 346.5 1060Q461 1132 613 1132Q766 1132 881 1060Q996 988 1060 857.5Q1124 727 1124 552Q1124 380 1060 250Q996 120 881 48Q766 -24 613 -24ZM613 137Q726 137 799 195Q872 253 907 347.5Q942 442 942 552Q942 663 907 758.5Q872 854 799 912.5Q726 971 613 971Q501 971 429 912.5Q357 854 322 759Q287 664 287 552Q287 442 322 347.5Q357 253 429 195Q501 137 613 137Z" transform="translate(604.66,500.00) scale(0.01270,-0.01270)" fill="#d8d2c7"/><path d="M537 -14Q424 -14 338.5 32.5Q253 79 205.5 173Q158 267 158 408L158 1118L338 1118L338 423Q338 294 406 221Q474 148 591 148Q671 148 734.5 183Q798 218 835 285.5Q872 353 872 448L872 1118L1053 1118L1053 0L879 0L879 271L903 271Q851 114 755.5 50Q660 -14 537 -14Z" transform="translate(620.25,500.00) scale(0.01270,-0.01270)" fill="#d8d2c7"/><path d="" transform="translate(635.62,500.00) scale(0.01270,-0.01270)" fill="#d8d2c7"/><path d="M338 670L338 0L158 0L158 1490L338 1490L338 847L307 847Q358 1002 452.5 1067Q547 1132 674 1132Q787 1132 872.5 1085.5Q958 1039 1005.5 945.5Q1053 852 1053 710L1053 0L872 0L872 695Q872 824 804.5 897Q737 970 620 970Q540 970 476 935Q412 900 375 833Q338 766 338 670Z" transform="translate(642.94,500.00) scale(0.01270,-0.01270)" fill="#d8d2c7"/><path d="M613 -24Q461 -24 346.5 48Q232 120 168 250Q104 380 104 552Q104 727 168 857.5Q232 988 346.5 1060Q461 1132 613 1132Q766 1132 881 1060Q996 988 1060 857.5Q1124 727 1124 552Q1124 380 1060 250Q996 120 881 48Q766 -24 613 -24ZM613 137Q726 137 799 195Q872 253 907 347.5Q942 442 942 552Q942 663 907 758.5Q872 854 799 912.5Q726 971 613 971Q501 971 429 912.5Q357 854 322 759Q287 664 287 552Q287 442 322 347.5Q357 253 429 195Q501 137 613 137Z" transform="translate(658.31,500.00) scale(0.01270,-0.01270)" fill="#d8d2c7"/><path d="M338 1490L338 0L158 0L158 1490Z" transform="translate(673.90,500.00) scale(0.01270,-0.01270)" fill="#d8d2c7"/><path d="M577 -24Q438 -24 331 47Q224 118 164 248Q104 378 104 556Q104 733 164.5 862.5Q225 992 332 1062Q439 1132 578 1132Q687 1132 751 1096Q815 1060 849.5 1014.5Q884 969 902 939L916 939L916 1490L1096 1490L1096 0L922 0L922 173L902 173Q884 142 848.5 95.5Q813 49 748.5 12.5Q684 -24 577 -24ZM604 137Q706 137 776 190.5Q846 244 882 339Q918 434 918 558Q918 682 882.5 774.5Q847 867 777 919Q707 971 604 971Q498 971 427.5 916Q357 861 322 767.5Q287 674 287 558Q287 441 322.5 345.5Q358 250 429 193.5Q500 137 604 137Z" transform="translate(680.20,500.00) scale(0.01270,-0.01270)" fill="#d8d2c7"/><path d="" transform="translate(696.12,500.00) scale(0.01270,-0.01270)" fill="#d8d2c7"/><path d="M598 1118L598 964L20 964L20 1118ZM188 1384L368 1384L368 290Q368 215 398.5 180.5Q429 146 500 146Q517 146 543.5 150Q570 154 592 158L629 6Q601 -4 565.5 -9Q530 -14 495 -14Q350 -14 269 62.5Q188 139 188 276Z" transform="translate(703.43,500.00) scale(0.01270,-0.01270)" fill="#d8d2c7"/><path d="M338 670L338 0L158 0L158 1490L338 1490L338 847L307 847Q358 1002 452.5 1067Q547 1132 674 1132Q787 1132 872.5 1085.5Q958 1039 1005.5 945.5Q1053 852 1053 710L1053 0L872 0L872 695Q872 824 804.5 897Q737 970 620 970Q540 970 476 935Q412 900 375 833Q338 766 338 670Z" transform="translate(711.93,500.00) scale(0.01270,-0.01270)" fill="#d8d2c7"/><path d="M628 -24Q466 -24 348.5 48Q231 120 167.5 249Q104 378 104 550Q104 722 166 853Q228 984 341.5 1058Q455 1132 607 1132Q696 1132 782.5 1102.5Q869 1073 939.5 1007.5Q1010 942 1052 835Q1094 728 1094 573L1094 498L226 498L226 650L997 650L913 594Q913 704 878.5 789.5Q844 875 776 923.5Q708 972 607 972Q506 972 434 922.5Q362 873 324 793.5Q286 714 286 623L286 522Q286 398 329 311.5Q372 225 449.5 180.5Q527 136 629 136Q695 136 749 155Q803 174 842 212.5Q881 251 902 308L1076 260Q1050 176 988 112Q926 48 834.5 12Q743 -24 628 -24Z" transform="translate(727.31,500.00) scale(0.01270,-0.01270)" fill="#d8d2c7"/><path d="" transform="translate(742.47,500.00) scale(0.01270,-0.01270)" fill="#d8d2c7"/><path d="M611 -442Q487 -442 396.5 -410.5Q306 -379 246 -327Q186 -275 151 -214L297 -120Q321 -152 356.5 -191Q392 -230 452.5 -257.5Q513 -285 611 -285Q745 -285 831.5 -221Q918 -157 918 -19L918 205L901 205Q882 173 847.5 129Q813 85 748.5 51.5Q684 18 576 18Q442 18 335 81.5Q228 145 166 267Q104 389 104 564Q104 737 165 864.5Q226 992 333.5 1062Q441 1132 580 1132Q688 1132 752.5 1096.5Q817 1061 852 1015Q887 969 906 939L923 939L923 1118L1098 1118L1098 -29Q1098 -173 1033 -264.5Q968 -356 857.5 -399Q747 -442 611 -442ZM606 178Q708 178 778 224.5Q848 271 884 358.5Q920 446 920 568Q920 687 884.5 777.5Q849 868 779 919.5Q709 971 606 971Q500 971 429 916.5Q358 862 322.5 771Q287 680 287 568Q287 453 323 365Q359 277 430 227.5Q501 178 606 178Z" transform="translate(749.78,500.00) scale(0.01270,-0.01270)" fill="#d8d2c7"/><path d="M471 -26Q365 -26 278.5 14Q192 54 141 131Q90 208 90 318Q90 414 128 474Q166 534 229.5 568.5Q293 603 370 620Q447 637 525 647Q625 660 688 667Q751 674 781.5 691Q812 708 812 749L812 755Q812 825 786 873.5Q760 922 708 948Q656 974 578 974Q498 974 441 949Q384 924 348.5 886.5Q313 849 295 810L122 867Q165 969 238 1026.5Q311 1084 399 1108Q487 1132 573 1132Q629 1132 700.5 1118.5Q772 1105 838.5 1065Q905 1025 948.5 946.5Q992 868 992 737L992 0L815 0L815 152L803 152Q784 113 742 71.5Q700 30 633 2Q566 -26 471 -26ZM502 133Q602 133 671 172Q740 211 776 273.5Q812 336 812 404L812 559Q801 546 764 535.5Q727 525 679.5 517Q632 509 587.5 503.5Q543 498 517 495Q452 487 395.5 467.5Q339 448 305 410.5Q271 373 271 309Q271 251 301 212Q331 173 383 153Q435 133 502 133Z" transform="translate(765.72,500.00) scale(0.01270,-0.01270)" fill="#d8d2c7"/><path d="M598 1118L598 964L20 964L20 1118ZM188 1384L368 1384L368 290Q368 215 398.5 180.5Q429 146 500 146Q517 146 543.5 150Q570 154 592 158L629 6Q601 -4 565.5 -9Q530 -14 495 -14Q350 -14 269 62.5Q188 139 188 276Z" transform="translate(780.32,500.00) scale(0.01270,-0.01270)" fill="#d8d2c7"/><path d="M628 -24Q466 -24 348.5 48Q231 120 167.5 249Q104 378 104 550Q104 722 166 853Q228 984 341.5 1058Q455 1132 607 1132Q696 1132 782.5 1102.5Q869 1073 939.5 1007.5Q1010 942 1052 835Q1094 728 1094 573L1094 498L226 498L226 650L997 650L913 594Q913 704 878.5 789.5Q844 875 776 923.5Q708 972 607 972Q506 972 434 922.5Q362 873 324 793.5Q286 714 286 623L286 522Q286 398 329 311.5Q372 225 449.5 180.5Q527 136 629 136Q695 136 749 155Q803 174 842 212.5Q881 251 902 308L1076 260Q1050 176 988 112Q926 48 834.5 12Q743 -24 628 -24Z" transform="translate(788.83,500.00) scale(0.01270,-0.01270)" fill="#d8d2c7"/><path d="M538 -24Q423 -24 333.5 9.5Q244 43 186 109Q128 175 108 271L279 312Q303 220 369.5 177Q436 134 536 134Q653 134 722.5 184Q792 234 792 303Q792 361 751.5 399.5Q711 438 628 457L442 501Q290 537 216 612.5Q142 688 142 806Q142 902 196 975.5Q250 1049 343.5 1090.5Q437 1132 556 1132Q671 1132 751.5 1097.5Q832 1063 882.5 1002.5Q933 942 958 863L795 821Q772 881 718.5 930Q665 979 557 979Q457 979 390.5 933Q324 887 324 817Q324 755 369 717.5Q414 680 512 657L681 617Q833 581 906 505.5Q979 430 979 315Q979 217 923.5 140.5Q868 64 768.5 20Q669 -24 538 -24Z" transform="translate(803.99,500.00) scale(0.01270,-0.01270)" fill="#d8d2c7"/><path d="M295 -13Q239 -13 199.5 26.5Q160 66 160 122Q160 178 199.5 217.5Q239 257 295 257Q351 257 390.5 217.5Q430 178 430 122Q430 66 390.5 26.5Q351 -13 295 -13Z" transform="translate(817.71,500.00) scale(0.01270,-0.01270)" fill="#d8d2c7"/>

  <path d="M15 0L182 700L430 700L597 0L459 0L425 150L187 150L153 0ZM215 276L396 276L315 634L297 634Z" transform="translate(80.00,570.00) scale(0.01800,-0.01800)" fill="#d8d2c7"/><path d="M47 0L47 216L443 556L443 574L53 574L53 700L551 700L551 484L155 144L155 126L563 126L563 0Z" transform="translate(94.26,570.00) scale(0.01800,-0.01800)" fill="#d8d2c7"/><path d="M15 0L182 700L430 700L597 0L459 0L425 150L187 150L153 0ZM215 276L396 276L315 634L297 634Z" transform="translate(108.51,570.00) scale(0.01800,-0.01800)" fill="#d8d2c7"/><path d="M22 0L22 700L254 700L294 174L294 72L318 72L318 174L358 700L590 700L590 0L470 0L470 468L482 628L458 628L406 0L208 0L154 628L130 628L142 468L142 0Z" transform="translate(122.77,570.00) scale(0.01800,-0.01800)" fill="#d8d2c7"/><path d="M15 0L182 700L430 700L597 0L459 0L425 150L187 150L153 0ZM215 276L396 276L315 634L297 634Z" transform="translate(137.02,570.00) scale(0.01800,-0.01800)" fill="#d8d2c7"/><path d="M61 0L61 700L319 700L401 66L419 66L419 700L551 700L551 0L293 0L211 634L193 634L193 0Z" transform="translate(151.28,570.00) scale(0.01800,-0.01800)" fill="#d8d2c7"/><path d="M306 -14Q267 -14 239 13.5Q211 41 211 81Q211 121 239 148.5Q267 176 306 176Q345 176 373 148.5Q401 121 401 81Q401 41 373 13.5Q345 -14 306 -14Z" transform="translate(165.54,570.00) scale(0.01800,-0.01800)" fill="#d8d2c7"/><path d="M46 0L46 127L112 127L112 574L46 574L46 700L300 700Q429 700 492.5 639Q556 578 556 452L556 248Q556 122 492.5 61Q429 0 300 0ZM244 126L300 126Q369 126 396.5 158.5Q424 191 424 260L424 452Q424 512 396.5 543Q369 574 300 574L244 574Z" transform="translate(179.79,570.00) scale(0.01800,-0.01800)" fill="#d8d2c7"/><path d="M82 0L82 700L524 700L524 574L214 574L214 414L512 414L512 288L214 288L214 126L536 126L536 0Z" transform="translate(194.05,570.00) scale(0.01800,-0.01800)" fill="#d8d2c7"/><path d="M182 0L24 700L160 700L297 66L315 66L452 700L588 700L430 0Z" transform="translate(208.30,570.00) scale(0.01800,-0.01800)" fill="#d8d2c7"/>
  <path d="M46 0L46 126L112 126L112 574L46 574L46 700L353 700Q454 700 507 648Q560 596 560 518L560 506Q560 446 526.5 410Q493 374 442 360L442 342Q493 329 526.5 291.5Q560 254 560 195L560 183Q560 104 507 52Q454 0 353 0ZM244 414L340 414Q382 414 408 432Q434 450 434 491L434 497Q434 538 408 556Q382 574 340 574L244 574ZM244 126L340 126Q382 126 408 144.5Q434 163 434 204L434 210Q434 251 408 269.5Q382 288 340 288L244 288Z" transform="translate(535.50,570.00) scale(0.01800,-0.01800)" fill="#d8d2c7"/><path d="M73 0L73 700L341 700Q413 700 462 674Q511 648 536 604.5Q561 561 561 507L561 483Q561 440 537.5 402.5Q514 365 467 345L467 327Q502 323 522.5 300Q543 277 543 242L543 0L411 0L411 210Q411 234 398.5 249Q386 264 357 264L205 264L205 0ZM205 390L331 390Q379 390 404 413Q429 436 429 476L429 488Q429 523 404 548.5Q379 574 331 574L205 574Z" transform="translate(549.76,570.00) scale(0.01800,-0.01800)" fill="#d8d2c7"/><path d="M72 0L72 126L240 126L240 574L72 574L72 700L540 700L540 574L372 574L372 126L540 126L540 0Z" transform="translate(564.02,570.00) scale(0.01800,-0.01800)" fill="#d8d2c7"/><path d="M82 0L82 700L524 700L524 574L214 574L214 414L512 414L512 288L214 288L214 126L536 126L536 0Z" transform="translate(578.27,570.00) scale(0.01800,-0.01800)" fill="#d8d2c7"/><path d="M88 0L88 700L536 700L536 574L220 574L220 414L530 414L530 288L220 288L220 0Z" transform="translate(592.53,570.00) scale(0.01800,-0.01800)" fill="#d8d2c7"/><path d="" transform="translate(606.78,570.00) scale(0.01800,-0.01800)" fill="#d8d2c7"/><path d="M72 0L72 126L240 126L240 574L72 574L72 700L540 700L540 574L372 574L372 126L540 126L540 0Z" transform="translate(621.04,570.00) scale(0.01800,-0.01800)" fill="#d8d2c7"/><path d="M61 0L61 700L319 700L401 66L419 66L419 700L551 700L551 0L293 0L211 634L193 634L193 0Z" transform="translate(635.30,570.00) scale(0.01800,-0.01800)" fill="#d8d2c7"/><path d="M306 -14Q267 -14 239 13.5Q211 41 211 81Q211 121 239 148.5Q267 176 306 176Q345 176 373 148.5Q401 121 401 81Q401 41 373 13.5Q345 -14 306 -14Z" transform="translate(649.55,570.00) scale(0.01800,-0.01800)" fill="#d8d2c7"/><path d="" transform="translate(663.81,570.00) scale(0.01800,-0.01800)" fill="#d8d2c7"/><path d="M308 -14Q188 -14 118 59.5Q48 133 48 272L48 428Q48 563 118 638.5Q188 714 308 714Q433 714 498.5 644Q564 574 564 454L564 436L432 436L432 454Q432 487 421 519.5Q410 552 383 573Q356 594 308 594Q264 594 235.5 572.5Q207 551 193.5 515.5Q180 480 180 438L180 262Q180 194 209 150Q238 106 308 106Q359 106 386 126Q413 146 422.5 178Q432 210 432 246L432 264L564 264L564 246Q564 122 498.5 54Q433 -14 308 -14Z" transform="translate(678.06,570.00) scale(0.01800,-0.01800)" fill="#d8d2c7"/><path d="M73 0L73 700L341 700Q413 700 462 674Q511 648 536 604.5Q561 561 561 507L561 483Q561 440 537.5 402.5Q514 365 467 345L467 327Q502 323 522.5 300Q543 277 543 242L543 0L411 0L411 210Q411 234 398.5 249Q386 264 357 264L205 264L205 0ZM205 390L331 390Q379 390 404 413Q429 436 429 476L429 488Q429 523 404 548.5Q379 574 331 574L205 574Z" transform="translate(692.32,570.00) scale(0.01800,-0.01800)" fill="#d8d2c7"/><path d="M82 0L82 700L524 700L524 574L214 574L214 414L512 414L512 288L214 288L214 126L536 126L536 0Z" transform="translate(706.58,570.00) scale(0.01800,-0.01800)" fill="#d8d2c7"/><path d="M32 0L8 700L128 700L144 168L144 78L168 78L168 168L200 700L412 700L444 168L444 78L468 78L468 168L484 700L604 700L580 0L350 0L318 532L318 628L294 628L294 532L262 0Z" transform="translate(720.83,570.00) scale(0.01800,-0.01800)" fill="#d8d2c7"/><path d="" transform="translate(735.09,570.00) scale(0.01800,-0.01800)" fill="#d8d2c7"/><path d="M15 0L182 700L430 700L597 0L459 0L425 150L187 150L153 0ZM215 276L396 276L315 634L297 634Z" transform="translate(749.34,570.00) scale(0.01800,-0.01800)" fill="#d8d2c7"/><path d="M316 -14Q224 -14 161.5 19.5Q99 53 67.5 111Q36 169 36 242L36 272L168 272L168 248Q168 185 205 147.5Q242 110 318 110Q378 110 407 136Q436 162 436 198Q436 221 425 240.5Q414 260 385 274.5Q356 289 302 298Q232 310 177.5 333Q123 356 91.5 397.5Q60 439 60 508L60 514Q60 571 90 616.5Q120 662 174.5 688Q229 714 302 714Q385 714 442 684Q499 654 528.5 604.5Q558 555 558 498L558 462L426 462L426 486Q426 528 393.5 559Q361 590 302 590Q253 590 223.5 569.5Q194 549 194 514Q194 478 225.5 456Q257 434 344 418Q454 399 512 351.5Q570 304 570 212L570 200Q570 103 502 44.5Q434 -14 316 -14Z" transform="translate(763.60,570.00) scale(0.01800,-0.01800)" fill="#d8d2c7"/><path d="M316 -14Q224 -14 161.5 19.5Q99 53 67.5 111Q36 169 36 242L36 272L168 272L168 248Q168 185 205 147.5Q242 110 318 110Q378 110 407 136Q436 162 436 198Q436 221 425 240.5Q414 260 385 274.5Q356 289 302 298Q232 310 177.5 333Q123 356 91.5 397.5Q60 439 60 508L60 514Q60 571 90 616.5Q120 662 174.5 688Q229 714 302 714Q385 714 442 684Q499 654 528.5 604.5Q558 555 558 498L558 462L426 462L426 486Q426 528 393.5 559Q361 590 302 590Q253 590 223.5 569.5Q194 549 194 514Q194 478 225.5 456Q257 434 344 418Q454 399 512 351.5Q570 304 570 212L570 200Q570 103 502 44.5Q434 -14 316 -14Z" transform="translate(777.86,570.00) scale(0.01800,-0.01800)" fill="#d8d2c7"/><path d="M82 0L82 700L524 700L524 574L214 574L214 414L512 414L512 288L214 288L214 126L536 126L536 0Z" transform="translate(792.11,570.00) scale(0.01800,-0.01800)" fill="#d8d2c7"/><path d="M22 0L22 700L254 700L294 174L294 72L318 72L318 174L358 700L590 700L590 0L470 0L470 468L482 628L458 628L406 0L208 0L154 628L130 628L142 468L142 0Z" transform="translate(806.37,570.00) scale(0.01800,-0.01800)" fill="#d8d2c7"/><path d="M46 0L46 126L112 126L112 574L46 574L46 700L353 700Q454 700 507 648Q560 596 560 518L560 506Q560 446 526.5 410Q493 374 442 360L442 342Q493 329 526.5 291.5Q560 254 560 195L560 183Q560 104 507 52Q454 0 353 0ZM244 414L340 414Q382 414 408 432Q434 450 434 491L434 497Q434 538 408 556Q382 574 340 574L244 574ZM244 126L340 126Q382 126 408 144.5Q434 163 434 204L434 210Q434 251 408 269.5Q382 288 340 288L244 288Z" transform="translate(820.62,570.00) scale(0.01800,-0.01800)" fill="#d8d2c7"/><path d="M82 0L82 700L214 700L214 126L532 126L532 0Z" transform="translate(834.88,570.00) scale(0.01800,-0.01800)" fill="#d8d2c7"/><path d="M82 0L82 700L524 700L524 574L214 574L214 414L512 414L512 288L214 288L214 126L536 126L536 0Z" transform="translate(849.14,570.00) scale(0.01800,-0.01800)" fill="#d8d2c7"/><path d="M316 -14Q224 -14 161.5 19.5Q99 53 67.5 111Q36 169 36 242L36 272L168 272L168 248Q168 185 205 147.5Q242 110 318 110Q378 110 407 136Q436 162 436 198Q436 221 425 240.5Q414 260 385 274.5Q356 289 302 298Q232 310 177.5 333Q123 356 91.5 397.5Q60 439 60 508L60 514Q60 571 90 616.5Q120 662 174.5 688Q229 714 302 714Q385 714 442 684Q499 654 528.5 604.5Q558 555 558 498L558 462L426 462L426 486Q426 528 393.5 559Q361 590 302 590Q253 590 223.5 569.5Q194 549 194 514Q194 478 225.5 456Q257 434 344 418Q454 399 512 351.5Q570 304 570 212L570 200Q570 103 502 44.5Q434 -14 316 -14Z" transform="translate(863.39,570.00) scale(0.01800,-0.01800)" fill="#d8d2c7"/><path d="M306 -14Q267 -14 239 13.5Q211 41 211 81Q211 121 239 148.5Q267 176 306 176Q345 176 373 148.5Q401 121 401 81Q401 41 373 13.5Q345 -14 306 -14Z" transform="translate(877.65,570.00) scale(0.01800,-0.01800)" fill="#d8d2c7"/><path d="" transform="translate(891.90,570.00) scale(0.01800,-0.01800)" fill="#d8d2c7"/><path d="M15 0L182 700L430 700L597 0L459 0L425 150L187 150L153 0ZM215 276L396 276L315 634L297 634Z" transform="translate(906.16,570.00) scale(0.01800,-0.01800)" fill="#d8d2c7"/><path d="M73 0L73 700L341 700Q413 700 462 674Q511 648 536 604.5Q561 561 561 507L561 483Q561 440 537.5 402.5Q514 365 467 345L467 327Q502 323 522.5 300Q543 277 543 242L543 0L411 0L411 210Q411 234 398.5 249Q386 264 357 264L205 264L205 0ZM205 390L331 390Q379 390 404 413Q429 436 429 476L429 488Q429 523 404 548.5Q379 574 331 574L205 574Z" transform="translate(920.42,570.00) scale(0.01800,-0.01800)" fill="#d8d2c7"/><path d="M240 0L240 574L54 574L54 700L558 700L558 574L372 574L372 0Z" transform="translate(934.67,570.00) scale(0.01800,-0.01800)" fill="#d8d2c7"/><path d="M72 0L72 126L240 126L240 574L72 574L72 700L540 700L540 574L372 574L372 126L540 126L540 0Z" transform="translate(948.93,570.00) scale(0.01800,-0.01800)" fill="#d8d2c7"/><path d="M88 0L88 700L536 700L536 574L220 574L220 414L530 414L530 288L220 288L220 0Z" transform="translate(963.18,570.00) scale(0.01800,-0.01800)" fill="#d8d2c7"/><path d="M15 0L182 700L430 700L597 0L459 0L425 150L187 150L153 0ZM215 276L396 276L315 634L297 634Z" transform="translate(977.44,570.00) scale(0.01800,-0.01800)" fill="#d8d2c7"/><path d="M308 -14Q188 -14 118 59.5Q48 133 48 272L48 428Q48 563 118 638.5Q188 714 308 714Q433 714 498.5 644Q564 574 564 454L564 436L432 436L432 454Q432 487 421 519.5Q410 552 383 573Q356 594 308 594Q264 594 235.5 572.5Q207 551 193.5 515.5Q180 480 180 438L180 262Q180 194 209 150Q238 106 308 106Q359 106 386 126Q413 146 422.5 178Q432 210 432 246L432 264L564 264L564 246Q564 122 498.5 54Q433 -14 308 -14Z" transform="translate(991.70,570.00) scale(0.01800,-0.01800)" fill="#d8d2c7"/><path d="M240 0L240 574L54 574L54 700L558 700L558 574L372 574L372 0Z" transform="translate(1005.95,570.00) scale(0.01800,-0.01800)" fill="#d8d2c7"/><path d="" transform="translate(1020.21,570.00) scale(0.01800,-0.01800)" fill="#d8d2c7"/><path d="M316 -14Q224 -14 161.5 19.5Q99 53 67.5 111Q36 169 36 242L36 272L168 272L168 248Q168 185 205 147.5Q242 110 318 110Q378 110 407 136Q436 162 436 198Q436 221 425 240.5Q414 260 385 274.5Q356 289 302 298Q232 310 177.5 333Q123 356 91.5 397.5Q60 439 60 508L60 514Q60 571 90 616.5Q120 662 174.5 688Q229 714 302 714Q385 714 442 684Q499 654 528.5 604.5Q558 555 558 498L558 462L426 462L426 486Q426 528 393.5 559Q361 590 302 590Q253 590 223.5 569.5Q194 549 194 514Q194 478 225.5 456Q257 434 344 418Q454 399 512 351.5Q570 304 570 212L570 200Q570 103 502 44.5Q434 -14 316 -14Z" transform="translate(1034.46,570.00) scale(0.01800,-0.01800)" fill="#d8d2c7"/><path d="M61 0L61 700L193 700L193 414L419 414L419 700L551 700L551 0L419 0L419 288L193 288L193 0Z" transform="translate(1048.72,570.00) scale(0.01800,-0.01800)" fill="#d8d2c7"/><path d="M72 0L72 126L240 126L240 574L72 574L72 700L540 700L540 574L372 574L372 126L540 126L540 0Z" transform="translate(1062.98,570.00) scale(0.01800,-0.01800)" fill="#d8d2c7"/><path d="M72 0L72 700L346 700Q418 700 465.5 670.5Q513 641 536.5 594.5Q560 548 560 497L560 473Q560 421 536.5 373Q513 325 465.5 294.5Q418 264 346 264L204 264L204 0ZM204 390L333 390Q377 390 402.5 414Q428 438 428 476L428 488Q428 526 402.5 550Q377 574 333 574L204 574Z" transform="translate(1077.23,570.00) scale(0.01800,-0.01800)" fill="#d8d2c7"/><path d="M316 -14Q224 -14 161.5 19.5Q99 53 67.5 111Q36 169 36 242L36 272L168 272L168 248Q168 185 205 147.5Q242 110 318 110Q378 110 407 136Q436 162 436 198Q436 221 425 240.5Q414 260 385 274.5Q356 289 302 298Q232 310 177.5 333Q123 356 91.5 397.5Q60 439 60 508L60 514Q60 571 90 616.5Q120 662 174.5 688Q229 714 302 714Q385 714 442 684Q499 654 528.5 604.5Q558 555 558 498L558 462L426 462L426 486Q426 528 393.5 559Q361 590 302 590Q253 590 223.5 569.5Q194 549 194 514Q194 478 225.5 456Q257 434 344 418Q454 399 512 351.5Q570 304 570 212L570 200Q570 103 502 44.5Q434 -14 316 -14Z" transform="translate(1091.49,570.00) scale(0.01800,-0.01800)" fill="#d8d2c7"/><path d="M306 -14Q267 -14 239 13.5Q211 41 211 81Q211 121 239 148.5Q267 176 306 176Q345 176 373 148.5Q401 121 401 81Q401 41 373 13.5Q345 -14 306 -14Z" transform="translate(1105.74,570.00) scale(0.01800,-0.01800)" fill="#d8d2c7"/>

  <!-- accent rule -->
  <rect x="80" y="510" width="56" height="3" fill="#e0457b"/>
</svg>